<?xml version="1.0" standalone="no"?>
<!DOCTYPE svg PUBLIC "-//W3C//DTD SVG 20010904//EN"
 "http://www.w3.org/TR/2001/REC-SVG-20010904/DTD/svg10.dtd">
<svg version="1.0" xmlns="http://www.w3.org/2000/svg"
 width="685.000000pt" height="685.000000pt" viewBox="0 0 685.000000 685.000000"
 preserveAspectRatio="xMidYMid meet">

<g transform="translate(0.000000,685.000000) scale(0.100000,-0.100000)"
fill="#000000" stroke="none">
<path d="M3881 5893 c-17 -3 -20 -7 -12 -13 16 -9 51 -1 51 11 0 5 -3 8 -7 8
-5 -1 -19 -4 -32 -6z"/>
<path d="M3744 5858 c-3 -4 2 -8 11 -8 12 0 15 -6 10 -20 -5 -16 -2 -20 19
-20 42 0 57 10 46 30 -10 18 -77 33 -86 18z"/>
<path d="M3945 5837 c-9 -45 -20 -54 -41 -33 -8 9 -25 16 -36 16 -18 0 -19 -2
-7 -16 25 -30 142 -73 153 -56 3 4 -10 35 -29 67 l-33 59 -7 -37z m25 -57 c0
-5 -4 -10 -9 -10 -6 0 -13 5 -16 10 -3 6 1 10 9 10 9 0 16 -4 16 -10z"/>
<path d="M3466 5818 c-9 -5 -16 -19 -17 -31 0 -12 -3 -16 -6 -9 -7 19 -19 14
-31 -13 -7 -15 -20 -25 -32 -25 -11 0 -20 -5 -20 -12 0 -6 -7 -20 -17 -30 -15
-17 -15 -18 3 -18 10 0 56 11 102 24 45 13 82 20 82 17 0 -4 -33 -15 -72 -26
-40 -10 -114 -39 -163 -65 -60 -31 -109 -49 -145 -53 -156 -19 -147 -18 -117
-6 17 7 26 16 23 25 -3 7 -1 16 4 19 6 4 10 13 10 22 0 13 -8 14 -48 9 -43 -6
-51 -3 -72 19 -14 15 -33 25 -45 23 -11 -1 -35 8 -53 21 -18 12 -40 20 -48 17
-9 -3 -25 -1 -36 5 -11 6 -51 12 -89 14 -38 1 -76 8 -84 15 -12 10 -21 9 -49
-4 -41 -19 -59 -20 -102 -4 -27 10 -37 9 -59 -6 -14 -9 -31 -27 -36 -39 -6
-12 -19 -38 -30 -57 -10 -19 -19 -46 -19 -59 0 -21 4 -23 33 -18 52 8 121 29
137 41 10 8 45 10 105 6 l90 -5 -101 -13 c-100 -12 -227 -43 -334 -80 -49 -17
-55 -22 -58 -49 -3 -26 2 -34 33 -51 39 -24 45 -35 69 -137 16 -62 37 -118 68
-179 8 -15 7 -18 -7 -13 -9 4 -14 3 -10 -3 3 -6 13 -10 21 -10 8 0 38 -12 67
-26 51 -26 55 -27 177 -20 69 3 145 10 170 15 25 5 46 8 48 6 9 -9 -97 -46
-175 -61 -101 -21 -97 -19 -88 -34 6 -9 9 -9 15 0 9 14 220 20 255 7 17 -6 28
7 80 94 33 56 70 118 83 138 12 20 36 80 54 134 35 112 58 147 94 147 42 0 60
-16 100 -87 66 -119 110 -177 173 -227 34 -26 77 -63 94 -81 18 -17 55 -43 82
-57 62 -30 100 -21 111 25 3 15 4 30 2 31 -1 1 -30 11 -63 21 l-60 19 105 13
c58 7 126 17 152 24 59 14 127 58 151 98 10 17 23 31 28 31 6 0 7 5 4 10 -4 6
-2 25 3 43 6 17 13 48 16 68 5 25 13 38 26 42 12 3 20 14 20 26 0 12 4 21 10
21 5 0 25 16 45 36 21 21 49 38 69 41 31 5 34 3 40 -28 l8 -34 13 30 c18 41 5
52 -73 66 l-62 11 0 43 0 43 -67 13 c-41 7 -149 13 -269 13 -156 1 -195 3
-175 12 45 19 54 37 30 62 -23 25 -42 28 -58 9 -12 -15 -75 -21 -66 -7 7 12
-30 19 -49 8z m390 -119 c64 -16 99 -53 113 -118 6 -30 9 -56 7 -59 -3 -3 -17
3 -30 12 -33 21 -39 20 -26 -4 13 -25 10 -25 -69 0 -36 11 -102 22 -150 24
-105 4 -102 4 -71 21 33 19 124 19 189 -1 57 -17 83 -12 35 7 -47 18 -156 31
-204 24 -89 -13 -199 -77 -167 -97 8 -5 4 -15 -12 -32 -14 -14 -22 -28 -20
-30 11 -11 123 12 134 28 11 15 13 15 19 1 4 -10 19 -15 48 -14 40 0 134 15
114 18 -5 0 -3 8 4 16 16 19 30 10 23 -15 -4 -14 0 -20 11 -20 8 0 25 -13 38
-30 21 -29 48 -40 48 -20 0 23 48 59 70 53 20 -5 21 -10 15 -62 -3 -31 -19
-84 -35 -117 -26 -58 -31 -63 -84 -83 -127 -47 -343 -55 -421 -14 -77 41 -163
187 -171 291 -4 49 -2 60 19 82 34 37 79 67 118 79 19 5 61 19 94 31 111 38
271 51 361 29z m198 -15 c27 -10 7 -24 -35 -24 -40 0 -54 15 -21 23 27 7 39 7
56 1z m18 -86 c-7 -7 -12 -8 -12 -2 0 14 12 26 19 19 2 -3 -1 -11 -7 -17z
m-1290 -31 c33 -17 67 -58 73 -87 4 -21 -11 -28 -17 -9 -3 8 -42 14 -103 16
-92 5 -108 3 -193 -25 -97 -33 -136 -61 -148 -107 -4 -15 -13 -29 -20 -32 -8
-3 -14 -11 -14 -18 0 -7 -5 -15 -11 -17 -5 -2 -7 -11 -4 -21 4 -9 11 -15 15
-12 4 3 10 -4 13 -15 4 -14 11 -18 24 -14 13 4 14 3 5 -3 -7 -5 -10 -17 -6
-26 3 -10 1 -17 -5 -17 -17 0 -13 -14 10 -44 23 -30 23 -30 71 37 15 21 27 25
101 29 88 6 160 30 187 63 14 17 13 18 -10 11 -115 -32 -145 -37 -183 -31 -23
4 -46 9 -50 12 -11 7 23 43 40 43 7 0 13 5 13 10 0 6 10 10 22 10 12 0 48 7
81 17 44 12 61 22 68 40 10 28 10 28 38 4 26 -23 100 -36 115 -21 8 8 5 17
-11 30 -30 24 -29 30 7 30 17 0 30 -4 30 -10 0 -20 21 -9 30 15 5 14 17 25 26
25 14 0 15 -8 9 -56 -16 -132 -85 -258 -163 -298 -42 -22 -146 -38 -252 -39
-104 -2 -156 15 -192 64 -55 74 -88 281 -54 343 31 58 113 97 241 116 78 11
183 5 217 -13z m-497 -86 c3 -6 -11 -13 -30 -17 -38 -7 -51 -2 -40 15 8 14 62
14 70 2z m449 -30 c11 -4 -18 -11 -80 -19 -54 -6 -100 -9 -103 -7 -2 3 11 11
30 19 36 16 121 20 153 7z m-34 -51 c0 -5 -2 -10 -4 -10 -3 0 -8 5 -11 10 -3
6 -1 10 4 10 6 0 11 -4 11 -10z m-120 -60 c0 -5 -4 -10 -10 -10 -5 0 -10 5
-10 10 0 6 5 10 10 10 6 0 10 -4 10 -10z"/>
<path d="M3438 5503 c7 -3 16 -2 19 1 4 3 -2 6 -13 5 -11 0 -14 -3 -6 -6z"/>
<path d="M3565 5420 c3 -5 13 -10 21 -10 8 0 12 5 9 10 -3 6 -13 10 -21 10 -8
0 -12 -4 -9 -10z"/>
<path d="M3618 5413 c7 -3 16 -2 19 1 4 3 -2 6 -13 5 -11 0 -14 -3 -6 -6z"/>
<path d="M3595 5391 c-3 -5 -21 -7 -40 -4 -51 8 -43 -5 21 -33 71 -31 143 -40
269 -34 114 6 102 21 -20 25 -67 3 -154 21 -165 35 -9 12 -59 20 -65 11z"/>
<path d="M3677 5796 c-5 -12 -1 -13 24 -4 35 12 37 18 5 18 -13 0 -26 -6 -29
-14z"/>
<path d="M3260 5650 c-8 -5 -12 -11 -9 -14 2 -3 11 -1 19 4 8 5 12 11 9 14 -2
3 -11 1 -19 -4z"/>
<path d="M4337 5417 l-29 -23 17 -57 c9 -31 18 -57 20 -57 6 0 45 123 45 142
0 24 -19 23 -53 -5z"/>
<path d="M4270 5200 c0 -62 13 -77 40 -45 10 12 8 23 -9 60 -12 25 -23 45 -26
45 -3 0 -5 -27 -5 -60z"/>
<path d="M3667 4994 c-10 -10 32 -82 78 -136 22 -25 51 -61 64 -78 18 -24 30
-31 47 -27 39 7 64 -29 61 -91 -2 -42 -5 -52 -20 -52 -10 0 -20 7 -23 15 -4 8
-14 15 -24 15 -10 0 -23 7 -30 16 -10 12 -72 44 -85 44 -2 0 -5 -28 -6 -67 -1
-32 -8 -40 -22 -26 -4 3 -24 7 -44 7 -43 1 -52 18 -24 43 26 22 27 39 2 53
-25 13 -24 13 -51 -10 -21 -18 -20 -25 3 -21 5 1 7 -15 5 -36 -2 -32 -9 -41
-37 -55 -21 -11 -57 -18 -90 -18 -63 0 -129 -15 -151 -35 -15 -14 -113 -18
-241 -11 -79 4 -96 11 -77 33 7 9 13 28 13 42 0 22 6 26 45 34 25 5 50 14 55
20 6 7 30 13 55 15 25 1 52 5 60 9 8 3 41 5 73 4 38 -2 57 1 57 9 0 6 -4 9 -9
5 -16 -9 -23 13 -11 35 11 21 11 21 33 -3 12 -14 32 -28 44 -32 13 -3 30 -13
38 -21 13 -14 15 -13 15 5 0 11 5 23 10 26 6 3 10 -1 10 -9 0 -24 47 -31 70
-11 38 34 22 43 -34 19 -16 -6 -18 -4 -13 18 5 17 2 30 -8 38 -12 10 -15 10
-16 -1 0 -8 -4 -5 -9 6 -4 11 -6 31 -3 43 5 22 3 24 -32 20 -50 -4 -57 17 -9
27 48 8 94 54 94 92 0 20 -3 24 -9 14 -7 -10 -20 -12 -52 -6 -92 16 -112 13
-180 -22 -66 -34 -68 -34 -130 -23 -34 6 -72 18 -83 26 -27 18 -71 18 -100 -1
-13 -9 -47 -18 -76 -22 -59 -7 -67 -17 -50 -68 11 -32 10 -38 -6 -50 -11 -7
-23 -11 -28 -7 -5 3 -7 -2 -3 -11 3 -8 0 -20 -7 -27 -10 -8 -15 -7 -20 5 -3 8
0 15 7 15 7 0 1 9 -13 19 -13 11 -28 17 -33 14 -4 -2 -22 -6 -40 -8 -28 -2
-96 -28 -149 -56 -24 -12 -149 1 -155 17 -3 8 -9 12 -13 9 -4 -3 -13 2 -20 10
-14 17 -40 20 -40 4 0 -5 -4 -8 -9 -4 -17 10 -31 -32 -26 -77 8 -87 56 -264
91 -335 32 -68 57 -99 202 -255 31 -33 34 -39 24 -66 -6 -17 -31 -61 -56 -99
-41 -62 -52 -72 -108 -96 -167 -70 -321 -138 -393 -174 -44 -22 -132 -57 -195
-78 -125 -41 -474 -186 -530 -221 -54 -33 -158 -84 -172 -84 -6 0 -31 -9 -54
-21 -34 -16 -49 -32 -69 -73 -30 -62 -100 -308 -191 -676 -117 -476 -134 -599
-98 -706 13 -39 13 -49 -1 -89 -8 -25 -15 -50 -15 -56 0 -5 -10 -23 -21 -39
-17 -22 -24 -51 -30 -129 -5 -60 -17 -121 -30 -153 -34 -84 -38 -104 -59 -263
-11 -82 -33 -242 -50 -355 -25 -168 -31 -251 -37 -462 l-6 -258 692 0 c425 0
690 4 686 9 -3 5 -1 12 5 16 15 9 12 35 -4 35 -7 0 -25 -11 -40 -25 -22 -20
-37 -25 -82 -25 l-56 0 7 32 c4 18 16 42 26 54 10 11 19 25 19 31 0 7 24 21
53 31 53 20 54 20 128 1 40 -11 78 -24 84 -29 5 -4 44 -13 85 -19 41 -7 98
-18 125 -26 28 -7 63 -16 78 -20 23 -5 27 -9 21 -27 -5 -18 -3 -20 12 -14 11
4 34 10 52 13 28 5 30 8 20 21 -12 14 -6 14 46 8 99 -11 188 -37 182 -52 -5
-12 63 -14 410 -14 l415 0 -7 22 c-9 31 -34 80 -49 98 -7 8 -22 69 -34 135
-52 287 -60 335 -73 420 -12 84 -13 87 -18 45 -5 -41 -8 -31 -38 105 -18 83
-41 197 -51 255 -10 58 -36 182 -58 275 -45 191 -73 335 -73 380 0 17 -11 73
-24 125 -14 53 -32 136 -40 185 -9 50 -20 108 -25 130 -46 198 -141 737 -141
799 0 26 3 28 55 30 17 1 20 8 18 41 0 22 -3 52 -6 68 -4 19 -1 27 9 27 21 0
17 15 -8 34 -23 16 -23 16 7 10 l30 -5 -27 16 c-38 22 -35 39 3 20 17 -9 33
-14 36 -12 2 3 -11 13 -31 22 -40 19 -49 41 -13 29 21 -6 21 -6 -3 14 -29 25
-6 31 26 7 22 -16 48 -20 39 -5 -3 5 -21 17 -40 26 -41 19 -47 38 -7 24 l27
-10 -25 21 c-27 22 -22 22 23 0 15 -8 27 -20 27 -28 0 -15 16 -18 25 -3 9 15
-30 48 -71 59 -31 9 -43 7 -63 -5 -23 -16 -24 -18 -18 -120 5 -82 11 -113 28
-144 17 -30 20 -43 11 -52 -29 -29 -67 66 -97 242 -20 119 -24 138 -86 395
-49 203 -71 345 -53 345 10 0 44 -97 44 -127 0 -70 279 -514 399 -633 37 -38
54 -111 46 -205 -6 -66 -5 -68 9 -45 8 14 15 19 16 12 0 -26 23 -6 37 32 9 26
10 44 3 56 -19 35 -12 49 28 55 59 11 61 10 62 0 4 -23 23 -34 50 -28 25 4 31
1 46 -28 19 -39 32 -49 51 -42 7 3 15 -2 19 -10 3 -8 21 -18 39 -21 22 -5 35
-13 37 -26 2 -14 16 -2 58 51 30 38 68 84 85 102 18 18 55 66 83 108 44 63 52
83 52 121 0 86 20 153 85 283 36 72 65 134 65 138 0 5 16 43 36 85 42 89 51
118 68 227 7 44 20 96 28 115 60 131 71 160 77 202 6 37 5 48 -5 49 -34 3 -39
6 -36 19 2 8 9 21 17 29 8 8 11 27 8 50 -4 26 0 42 11 53 9 9 16 24 16 32 0 9
7 16 15 16 8 0 15 3 16 8 9 118 8 158 -1 187 -12 35 -24 44 -35 25 -3 -5 -17
-10 -30 -10 -12 0 -25 -6 -28 -13 -3 -9 -25 -14 -58 -16 -29 -1 -56 -7 -60
-13 -6 -9 -23 -6 -66 11 -62 24 -61 23 -119 62 -21 14 -59 29 -84 33 -24 4
-47 11 -50 17 -4 5 -9 6 -13 3z m343 -412 c0 -27 -6 -56 -15 -67 -8 -11 -33
-48 -55 -82 -22 -35 -44 -63 -50 -63 -14 0 -13 17 3 27 6 4 12 22 13 38 1 29
28 116 46 145 5 8 11 23 14 33 4 9 15 17 25 17 16 0 19 -8 19 -48z m-1068 13
c10 -14 -9 -23 -38 -17 -34 6 -31 30 4 29 15 -1 30 -6 34 -12z m967 -69 c9
-10 7 -16 -5 -26 -22 -19 -44 -65 -44 -94 0 -14 -5 -28 -11 -32 -6 -4 -8 -20
-4 -40 3 -19 2 -34 -3 -34 -4 0 -6 -15 -4 -33 2 -19 -3 -58 -12 -87 -9 -30
-16 -67 -16 -84 -1 -17 -9 -49 -20 -71 -10 -22 -17 -42 -15 -46 3 -3 -9 -19
-25 -34 -17 -16 -30 -36 -30 -44 -1 -15 -77 -61 -102 -61 -6 0 -23 -14 -37
-31 -26 -31 -86 -59 -127 -59 -11 0 -24 -3 -28 -7 -14 -14 -61 -8 -74 10 -18
23 -30 22 -34 -5 -3 -20 -9 -23 -62 -25 -50 -2 -62 1 -74 18 -10 14 -18 17
-24 11 -6 -6 -19 -7 -32 -2 -11 5 -28 11 -36 14 -47 19 -81 51 -127 121 -29
43 -50 82 -47 87 6 10 41 11 46 1 7 -18 96 -54 128 -53 19 0 72 2 116 3 64 2
93 7 131 26 46 23 49 27 48 63 0 21 -4 38 -10 38 -5 0 -4 4 4 9 7 5 22 6 32 4
12 -3 21 1 25 11 9 23 -2 31 -44 31 -21 0 -37 5 -37 10 0 6 9 9 20 8 18 -3 19
-2 3 10 -15 12 -15 14 3 25 10 7 19 16 19 20 0 4 -71 6 -157 4 -162 -3 -220 7
-264 44 -8 8 -23 14 -31 14 -9 0 -18 6 -21 13 -2 6 -8 9 -12 5 -5 -5 0 -17 10
-28 23 -26 11 -26 -25 0 -27 19 -130 150 -130 164 0 4 15 -4 33 -17 37 -28 76
-40 130 -39 43 0 52 5 42 22 -5 9 -10 9 -18 1 -17 -17 -24 -13 -36 20 -15 44
-14 51 8 44 12 -3 21 0 25 11 5 12 14 15 40 10 22 -4 36 -2 38 5 3 8 35 13 88
15 80 3 132 13 189 35 13 5 31 7 41 4 10 -3 21 -1 25 5 8 13 52 13 60 0 4 -6
19 -4 42 5 32 14 38 14 53 0 12 -11 19 -12 28 -3 6 6 25 12 42 13 25 1 34 -3
41 -22 10 -26 33 -53 45 -53 4 0 21 12 36 27 27 26 28 26 28 5 0 -11 4 -23 8
-26 15 -9 101 38 111 61 12 26 24 29 40 9z m-1197 -191 c15 15 71 -22 110 -73
23 -31 53 -68 66 -81 12 -14 21 -30 18 -37 -3 -7 2 -15 10 -18 8 -3 14 -10 14
-16 0 -17 -36 -11 -55 10 -10 11 -24 20 -31 20 -7 0 -21 10 -31 23 -10 13 -26
26 -36 30 -9 4 -20 15 -24 24 -3 10 -14 30 -24 44 -10 14 -16 28 -14 31 3 3
-4 13 -15 23 -22 20 -28 44 -7 26 8 -6 16 -9 19 -6z m628 -1169 c0 -3 -4 -8
-10 -11 -5 -3 -10 -1 -10 4 0 6 5 11 10 11 6 0 10 -2 10 -4z"/>
<path d="M3450 4399 c-8 -5 -35 -9 -60 -9 -25 0 -74 -4 -110 -9 -36 -5 -90
-12 -120 -16 -95 -11 -120 -16 -120 -24 0 -8 45 -17 145 -27 41 -5 61 0 115
24 36 16 85 32 110 36 49 7 77 20 63 29 -5 3 -15 1 -23 -4z"/>
<path d="M3685 4650 c-3 -5 -1 -10 4 -10 6 0 11 5 11 10 0 6 -2 10 -4 10 -3 0
-8 -4 -11 -10z"/>
<path d="M3545 4630 c-3 -5 3 -10 15 -10 12 0 18 5 15 10 -3 6 -10 10 -15 10
-5 0 -12 -4 -15 -10z"/>
<path d="M4152 4539 c-12 -19 -11 -19 8 -9 11 6 20 15 20 20 0 17 -15 11 -28
-11z"/>
<path d="M4134 4098 c-2 -172 -21 -375 -44 -460 -35 -129 -133 -330 -163 -336
-24 -5 -21 11 12 62 15 25 36 71 45 103 10 32 26 76 36 99 23 47 51 126 48
130 -2 1 -15 5 -30 9 -21 5 -34 0 -68 -31 -59 -53 -84 -106 -75 -160 3 -24 2
-60 -4 -81 -5 -21 -12 -70 -16 -110 -6 -65 -5 -73 15 -93 12 -12 28 -19 37
-16 21 8 15 -51 -31 -301 -40 -214 -72 -425 -81 -528 -8 -94 -92 -783 -111
-915 -9 -58 -20 -134 -25 -170 -5 -36 -14 -117 -19 -180 -48 -579 -55 -630
-81 -630 -5 0 -9 -5 -9 -11 0 -5 4 -7 10 -4 14 9 13 -19 -11 -152 -21 -123
-36 -212 -46 -275 l-6 -38 609 -2 c890 -4 1358 3 1362 21 2 8 20 31 40 51 21
19 48 50 60 68 13 18 30 32 38 32 8 0 14 5 14 10 0 6 7 10 15 10 8 0 15 9 15
20 0 27 143 172 192 194 93 44 172 -49 123 -143 -22 -44 -214 -219 -247 -227
-16 -3 -41 -12 -56 -20 -23 -12 52 -14 571 -14 l597 0 0 163 c0 184 -14 389
-35 520 -18 109 -140 623 -189 797 -9 30 -16 90 -16 134 0 62 -5 88 -23 125
-61 121 -62 123 -59 186 3 47 -3 80 -23 138 -14 43 -30 114 -35 160 -9 85 -46
210 -130 442 -49 138 -101 233 -192 355 -26 35 -48 75 -48 88 0 39 -17 59 -65
77 l-45 18 0 56 c0 149 -86 316 -152 296 -11 -4 -37 0 -57 9 -20 9 -76 22
-126 30 -185 31 -352 66 -410 87 -78 28 -167 53 -340 95 -167 41 -218 57 -307
96 -38 16 -107 37 -155 46 l-88 18 -73 89 c-41 50 -90 114 -109 143 -20 28
-36 52 -37 52 -1 0 -2 -60 -2 -132z m1478 -2989 c11 -6 26 -25 33 -43 23 -54
4 -98 -71 -169 -88 -84 -82 -99 14 -35 45 30 62 34 62 18 0 -5 5 -10 11 -10 6
0 9 9 6 19 -4 15 8 26 57 51 33 18 80 44 104 57 32 19 58 25 103 26 73 0 107
-21 128 -80 14 -38 13 -43 -7 -77 -24 -40 -22 -56 8 -56 10 0 32 -16 49 -35
44 -51 44 -108 -1 -162 -59 -70 -114 -112 -199 -153 -85 -41 -173 -104 -264
-189 -68 -64 -95 -81 -126 -81 -26 0 -43 25 -40 56 1 7 -7 11 -16 10 -12 -1
-19 7 -21 24 -2 14 -11 33 -19 42 -14 16 -14 22 -2 55 11 30 32 50 96 93 117
79 348 269 338 278 -5 6 -79 -43 -108 -71 -25 -25 -109 -77 -200 -123 -42 -21
-93 -47 -113 -58 -44 -23 -102 -37 -109 -26 -3 4 2 10 10 14 21 8 15 72 -7 68
-8 -1 -21 4 -28 13 -10 12 -9 16 5 21 16 6 15 9 -6 25 l-24 18 24 25 c29 31
47 33 61 6 6 -11 16 -20 22 -20 6 0 2 10 -10 23 -12 13 -22 31 -22 40 0 9 -4
18 -9 21 -11 7 -75 -40 -120 -88 -32 -33 -63 -48 -60 -28 3 17 -2 26 -9 15 -4
-6 -20 -15 -35 -19 -26 -6 -28 -4 -26 17 2 13 1 29 -3 34 -3 6 -1 21 4 35 l10
25 9 -22 c11 -31 23 -29 15 2 -5 18 -2 25 8 25 16 0 48 39 41 50 -2 3 12 26
31 49 19 24 34 50 34 57 0 18 14 18 30 -1 7 -8 24 -15 38 -15 24 0 24 1 8 18
-17 19 -13 82 5 82 5 0 9 7 9 15 0 8 12 22 28 32 15 9 45 31 67 49 78 62 139
79 187 53z m-548 -1020 c19 -15 37 -20 62 -17 27 3 34 1 31 -11 -1 -9 -12 -15
-22 -14 -11 1 -24 -5 -28 -13 -12 -21 -107 -20 -107 2 0 8 -4 12 -10 9 -13 -8
-12 -5 1 34 13 37 35 40 73 10z"/>
<path d="M5433 1030 c-19 -8 -41 -46 -31 -55 7 -8 68 40 68 53 0 14 -6 14 -37
2z"/>
<path d="M5410 787 c-45 -24 -63 -47 -36 -47 21 0 83 38 90 55 7 21 -4 19 -54
-8z"/>
<path d="M5905 730 c-3 -5 3 -10 15 -10 12 0 18 5 15 10 -3 6 -10 10 -15 10
-5 0 -12 -4 -15 -10z"/>
<path d="M5470 351 c0 -5 5 -13 10 -16 6 -3 10 -2 10 4 0 5 -4 13 -10 16 -5 3
-10 2 -10 -4z"/>
<path d="M5010 70 c0 -5 7 -10 15 -10 8 0 15 5 15 10 0 6 -7 10 -15 10 -8 0
-15 -4 -15 -10z"/>
<path d="M2473 53 c9 -2 23 -2 30 0 6 3 -1 5 -18 5 -16 0 -22 -2 -12 -5z"/>
<path d="M5538 35 c2 -14 10 -25 17 -25 10 0 11 5 2 25 -15 32 -26 32 -19 0z"/>
<path d="M2520 46 c0 -7 62 -36 74 -36 6 1 -5 9 -24 20 -35 19 -50 24 -50 16z"/>
<path d="M2405 20 c-15 -6 -6 -9 33 -9 33 -1 51 3 47 9 -7 12 -52 12 -80 0z"/>
<path d="M2518 13 c6 -2 18 -2 25 0 6 3 1 5 -13 5 -14 0 -19 -2 -12 -5z"/>
</g>
</svg>
